<svg xmlns="http://www.w3.org/2000/svg" viewBox="0 0 615.807 96.499">
  <defs>
    <style>
      .cls-1 {
        fill: #fff;
      }
    </style>
  </defs>
  <g id="logo-222" transform="translate(-407.363 -295.564)">
    <path id="Vector_11" class="cls-1" d="M461.7,326.371c-5.578-5.213-13.513-7.855-23.576-7.855h-.074c-.526,0-1.042.011-1.553.026-9.818.3-12.194,3.324-12.761,5.224h-.182V297.624h-16.2v92.96h16.2v-5.3h.178c.578,1.93,3.014,6.318,13.213,6.632.393.007.779.019,1.175.019,21.138,0,30.767-12.432,30.767-23.985V342.5A22.233,22.233,0,0,0,461.7,326.371ZM452.7,369.488c0,6.791-7.524,9.213-14.57,9.213-14.57,0-14.57-6.692-14.57-9.213V340.964c0-2.521,0-9.214,14.57-9.214,7.042,0,14.57,2.419,14.57,9.214Z"/>
    <path id="Vector_12" class="cls-1" d="M985.923,326.371c-5.578-5.213-13.514-7.855-23.577-7.855h-.074c-.526,0-1.041.011-1.553.026-9.818.3-12.194,3.324-12.761,5.224h-.178V297.624h-16.2v92.96h16.2v-5.3h.178c.579,1.93,3.014,6.318,13.214,6.632.392.007.778.019,1.174.019,21.138,0,30.767-12.432,30.767-23.985V342.5A22.252,22.252,0,0,0,985.923,326.371Zm-9.007,43.086c0,6.78-7.524,9.2-14.57,9.2-14.569,0-14.569-6.677-14.569-9.2V340.994c0-2.514,0-9.195,14.569-9.195,7.043,0,14.57,2.415,14.57,9.195Z"/>
    <path id="Vector_13" class="cls-1" d="M901.41,370.43c0,2.249,0,8.222-14.57,8.222-7.042,0-14.569-2.158-14.569-8.222V319.356h-16.2v48.087a22.254,22.254,0,0,0,7.19,16.13c5.578,5.213,13.514,7.855,23.576,7.855a53.028,53.028,0,0,0,7.984-.571c4.6-1.5,5.989-4.18,6.4-5.576h.178v5.3h16.2V319.356h-16.2V370.43Z"/>
    <path id="Vector_14" class="cls-1" d="M729.624,320.67v3.1h-.178c-.567-1.9-2.943-4.925-12.761-5.224-.512-.015-1.031-.026-1.553-.026h-.074c-21.138,0-30.767,12.431-30.767,23.985v25.45a22.257,22.257,0,0,0,7.19,16.13c5.579,5.212,13.514,7.855,23.577,7.855.4,0,.785-.012,1.175-.019,10.2-.315,12.635-4.7,13.213-6.633h.178v5.3h16.2V297.624h-16.2Zm0,48.787c0,2.514,0,9.2-14.57,9.2-7.042,0-14.57-2.415-14.57-9.2V340.994c0-6.78,7.524-9.195,14.57-9.195,14.57,0,14.57,6.678,14.57,9.195Z"/>
    <path id="Vector_15" class="cls-1" d="M512.831,318.516h-.074c-.527,0-1.042.011-1.553.026-9.818.3-12.194,3.324-12.761,5.224h-.178v-4.41h-16.2v71.228h16.2V339.968c0-2.248,0-8.222,14.57-8.222h11.43v-13.23Z"/>
    <path id="Vector_16" class="cls-1" d="M663.495,326.371c-5.582-5.213-13.514-7.855-23.576-7.855h-.075c-.526,0-1.041.011-1.553.026-9.818.3-12.194,3.324-12.761,5.224h-.177v-4.41h-16.2v71.228h16.2V339.968c0-2.248,0-8.222,14.569-8.222,7.042,0,14.57,2.158,14.57,8.222v50.616h16.2V342.5A22.271,22.271,0,0,0,663.495,326.371Z"/>
    <path id="Vector_17" class="cls-1" d="M835.489,326.371c-5.578-5.213-13.514-7.855-23.577-7.855h-.074c-.526,0-1.037.011-1.553.026-9.818.3-12.194,3.324-12.761,5.224h-.178V297.624h-16.2v92.96h16.2V339.968c0-2.248,0-8.222,14.57-8.222,7.042,0,14.57,2.158,14.57,8.222v50.616h16.2V342.5A22.244,22.244,0,0,0,835.489,326.371Z"/>
    <path id="Vector_18" class="cls-1" d="M563.489,318.516c-24.673,0-28.846,13.234-28.846,22.448h14.28v-.992c0-2.249,0-8.222,14.57-8.222,1.086,0,2.869.125,2.906.129,6.06.541,11.664,2.861,11.664,8.093V347.3l-14.57-.049c-10.144,0-16.471,1.439-22.271,5.644a21.952,21.952,0,0,0-8.495,16.963,21.613,21.613,0,0,0,7.19,16.13c5.578,5.213,13.676,6.519,23.576,5.947,8.673-.5,13.814-4.72,14.388-6.651h.178v5.3h16.2V341.176C594.256,331.05,586.814,318.516,563.489,318.516Zm14.567,51.077h0c0,.035,0,.072,0,.106-.008,3.044-.367,10.335-14.57,10.335-10.73,0-14.559-5.444-14.57-10.547.007-3.043.367-10.334,14.57-10.334l14.57.057Z"/>
    <path id="Vector_19" class="cls-1" d="M1013.87,307.863a3.821,3.821,0,0,0-4.07-4.175h-5.13v12.818h2.44v-4.615h1.34l3.09,4.615h3l-3.34-4.816A3.586,3.586,0,0,0,1013.87,307.863Zm-4.35,1.738h-2.42v-3.426h2.42c1.26,0,1.88.659,1.88,1.722C1011.4,308.942,1010.8,309.6,1009.52,309.6Z"/>
    <path id="Vector_20" class="cls-1" d="M1008.94,295.564a14.536,14.536,0,1,0,14.23,14.533A14.4,14.4,0,0,0,1008.94,295.564Zm0,27.006a12.476,12.476,0,1,1,12.22-12.473A12.359,12.359,0,0,1,1008.94,322.57Z"/>
  </g>
</svg>
