<svg id="Слой_1" data-name="Слой 1" xmlns="http://www.w3.org/2000/svg" xmlns:xlink="http://www.w3.org/1999/xlink" viewBox="0 0 91.58 173.38"><defs><style>.cls-1{fill:none;}.cls-2{clip-path:url(#clip-path);}.cls-3{fill:url(#Безымянный_градиент);}</style><clipPath id="clip-path"><path class="cls-1" d="M1.45,1.44a4.89,4.89,0,0,0,0,6.94l78.3,78.3L1.45,165a4.89,4.89,0,0,0,0,6.94,4.93,4.93,0,0,0,3.45,1.45,4.79,4.79,0,0,0,3.45-1.45L90.14,90.14a4.84,4.84,0,0,0,1.45-3.38v-.17a4.83,4.83,0,0,0-1.41-3.35L8.38,1.44a4.89,4.89,0,0,0-6.94,0"/></clipPath><linearGradient id="Безымянный_градиент" y1="173.37" x2="1" y2="173.37" gradientTransform="matrix(91.58, 0, 0, -91.58, 0, 15965.14)" gradientUnits="userSpaceOnUse"><stop offset="0" stop-color="#0054b9"/><stop offset="1" stop-color="#008555"/><stop offset="1" stop-color="#008555"/></linearGradient></defs><title>Монтажная область 1</title><g class="cls-2"><rect class="cls-3" x="-0.48" width="92.07" height="173.37"/></g></svg>