<svg id="triggers_6" data-name="triggers 6" xmlns="http://www.w3.org/2000/svg" width="370" height="310.563" viewBox="0 0 370 310.563">
  <metadata><?xpacket begin="﻿" id="W5M0MpCehiHzreSzNTczkc9d"?>
<x:xmpmeta xmlns:x="adobe:ns:meta/" x:xmptk="Adobe XMP Core 5.6-c142 79.160924, 2017/07/13-01:06:39        ">
   <rdf:RDF xmlns:rdf="http://www.w3.org/1999/02/22-rdf-syntax-ns#">
      <rdf:Description rdf:about=""/>
   </rdf:RDF>
</x:xmpmeta>
                                                                                                    
                                                                                                    
                                                                                                    
                                                                                                    
                                                                                                    
                                                                                                    
                                                                                                    
                                                                                                    
                                                                                                    
                                                                                                    
                                                                                                    
                                                                                                    
                                                                                                    
                                                                                                    
                                                                                                    
                                                                                                    
                                                                                                    
                                                                                                    
                                                                                                    
                                                                                                    
                           
<?xpacket end="w"?></metadata>
<defs>
    <style>
      .cls-1, .cls-3, .cls-4, .cls-5 {
        fill: none;
      }

      .cls-1, .cls-3, .cls-4, .cls-5, .cls-7 {
        stroke: #1974c6;
        stroke-width: 3px;
      }

      .cls-1, .cls-4 {
        stroke-linecap: round;
      }

      .cls-1 {
        stroke-linejoin: round;
      }

      .cls-1, .cls-2, .cls-3 {
        fill-rule: evenodd;
      }

      .cls-2 {
        fill: #2a7fca;
      }

      .cls-3 {
        stroke-dasharray: 12 6;
      }

      .cls-4 {
        stroke-dasharray: 0.001 6;
      }

      .cls-6, .cls-7 {
        fill: #1974c6;
      }
    </style>
  </defs>
  <path id="_22" data-name="22" class="cls-1" d="M313,256H57.965" transform="translate(0 -2.438)"/>
  <path id="_11" data-name="11" class="cls-1" d="M310.51,254.505L184,181" transform="translate(0 -2.438)"/>
  <path id="_0" data-name="0" class="cls-2" d="M142.275,133v64.229h82.45V133h-82.45Zm4.831,4.829H161.6v14.488H147.106V137.829Zm72.788,58.756H147.106V157.146h72.788v39.439Zm0-44.268H166.43V137.829h53.464v14.488Zm-48.633-9.658h43.8v4.829h-43.8v-4.829Zm-19.324,19.317V196.1h63.126V161.976H151.937ZM210.232,195.3H156.768V166.805h53.464V195.3Zm-95.576-1.611H252.344A2.657,2.657,0,0,1,255,196.344h0A2.656,2.656,0,0,1,252.344,199H114.656A2.656,2.656,0,0,1,112,196.344h0A2.657,2.657,0,0,1,114.656,193.687Z" transform="translate(0 -2.438)"/>
  <path id="_9" data-name="9" class="cls-1" d="M350.074,275.067H21.925L182.8,3.927Z" transform="translate(0 -2.438)"/>
  <path id="_8" data-name="8" class="cls-3" d="M56,255.468L183.858,39.854" transform="translate(0 -2.438)"/>
  <circle id="_7" data-name="7" class="cls-4" cx="184" cy="40.563" r="12"/>
  <circle id="_6" data-name="6" class="cls-5" cx="57" cy="253.563" r="12"/>
  <circle id="_5" data-name="5" class="cls-4" cx="57" cy="253.563" r="57"/>
  <circle id="_4" data-name="4" class="cls-4" cx="313" cy="253.563" r="57"/>
  <circle id="_3" data-name="3" class="cls-6" cx="57" cy="253.563" r="5"/>
  <circle id="_2" data-name="2" class="cls-7" cx="313" cy="253.563" r="12"/>
  <circle id="_1" data-name="1" class="cls-7" cx="183.5" cy="177.063" r="7.5"/>
</svg>
