<svg xmlns="http://www.w3.org/2000/svg" viewBox="0 0 203.889 31.95">
  <defs>
    <style>
      .cls-1 {
        fill: #0068ff;
      }
    </style>
  </defs>
  <g id="logo_2" transform="translate(-83 -21)">
    <path id="Vector_21" class="cls-1" d="M100.992,31.2c-1.846-1.726-4.474-2.6-7.805-2.6h-.024c-.174,0-.345,0-.514.009-3.251.1-4.037,1.1-4.225,1.73h-.06V21.682H83V52.46h5.363V50.7h.059c.191.639,1,2.092,4.375,2.2.13,0,.258.006.389.006,7,0,10.187-4.116,10.187-7.941V36.539A7.363,7.363,0,0,0,100.992,31.2ZM98.01,45.475c0,2.249-2.491,3.051-4.824,3.051-4.824,0-4.824-2.216-4.824-3.051V36.031c0-.835,0-3.051,4.824-3.051,2.332,0,4.824.8,4.824,3.051Z"/>
    <path id="Vector_22" class="cls-1" d="M274.556,31.2c-1.847-1.726-4.474-2.6-7.806-2.6h-.024c-.175,0-.345,0-.515.009-3.25.1-4.037,1.1-4.225,1.73h-.058V21.682h-5.363V52.46h5.363V50.7h.058c.192.639,1,2.092,4.375,2.2.13,0,.258.006.389.006,7,0,10.187-4.116,10.187-7.941V36.539A7.368,7.368,0,0,0,274.556,31.2Zm-2.982,14.266c0,2.245-2.491,3.044-4.824,3.044-4.824,0-4.824-2.211-4.824-3.044V36.041c0-.832,0-3.044,4.824-3.044,2.332,0,4.824.8,4.824,3.044Z"/>
    <path id="Vector_23" class="cls-1" d="M246.575,45.787c0,.744,0,2.722-4.824,2.722-2.332,0-4.824-.714-4.824-2.722V28.877h-5.363V44.8a7.369,7.369,0,0,0,2.381,5.34c1.847,1.726,4.474,2.6,7.806,2.6a17.532,17.532,0,0,0,2.643-.189,2.934,2.934,0,0,0,2.121-1.846h.058V52.46h5.363V28.877h-5.363v16.91Z"/>
    <path id="Vector_24" class="cls-1" d="M189.7,29.312v1.025h-.059c-.188-.629-.975-1.631-4.225-1.73-.17,0-.341-.009-.514-.009h-.025c-7,0-10.186,4.116-10.186,7.941v8.426a7.368,7.368,0,0,0,2.38,5.34c1.847,1.726,4.474,2.6,7.806,2.6.131,0,.26,0,.389-.006,3.377-.1,4.183-1.557,4.375-2.2h.059v1.756h5.362V21.682H189.7Zm0,16.153c0,.832,0,3.044-4.824,3.044-2.332,0-4.824-.8-4.824-3.044V36.041c0-2.245,2.491-3.044,4.824-3.044,4.824,0,4.824,2.211,4.824,3.044Z"/>
    <path id="Vector_25" class="cls-1" d="M117.92,28.6h-.025c-.174,0-.345,0-.514.009-3.251.1-4.037,1.1-4.225,1.73H113.1v-1.46h-5.363V52.46H113.1V35.7c0-.744,0-2.722,4.824-2.722h3.784V28.6Z"/>
    <path id="Vector_26" class="cls-1" d="M167.8,31.2c-1.848-1.726-4.474-2.6-7.806-2.6h-.024c-.175,0-.345,0-.514.009-3.251.1-4.038,1.1-4.226,1.73h-.058v-1.46h-5.363V52.46h5.363V35.7c0-.744,0-2.722,4.823-2.722,2.332,0,4.824.714,4.824,2.722V52.46h5.363V36.539A7.373,7.373,0,0,0,167.8,31.2Z"/>
    <path id="Vector_27" class="cls-1" d="M224.749,31.2c-1.847-1.726-4.474-2.6-7.806-2.6h-.025c-.174,0-.343,0-.514.009-3.251.1-4.037,1.1-4.225,1.73h-.059V21.682h-5.362V52.46h5.362V35.7c0-.744,0-2.722,4.824-2.722,2.332,0,4.824.715,4.824,2.722V52.46h5.363V36.539A7.365,7.365,0,0,0,224.749,31.2Z"/>
    <path id="Vector_28" class="cls-1" d="M134.692,28.6c-8.169,0-9.551,4.382-9.551,7.432h4.729V35.7c0-.744,0-2.722,4.823-2.722.36,0,.95.041.963.043,2.006.179,3.861.948,3.861,2.68v.327h0v2.1l-4.824-.016c-3.358,0-5.453.476-7.373,1.869a7.266,7.266,0,0,0-2.813,5.616,7.153,7.153,0,0,0,2.381,5.34c1.846,1.726,4.528,2.158,7.8,1.969,2.872-.167,4.574-1.563,4.764-2.2h.059v1.756h5.363V36.1C144.879,32.749,142.415,28.6,134.692,28.6Zm4.823,16.911h0c0,.011,0,.024,0,.035,0,1.008-.122,3.422-4.824,3.422-3.553,0-4.82-1.8-4.824-3.492,0-1.008.122-3.422,4.824-3.422l4.824.019Z"/>
    <path id="Vector_29" class="cls-1" d="M283.809,25.072a1.265,1.265,0,0,0-1.348-1.382h-1.7v4.244h.806V26.406h.446l1.021,1.528h.993l-1.106-1.594A1.186,1.186,0,0,0,283.809,25.072Zm-1.439.575h-.8V24.513h.8c.418,0,.62.218.62.57S282.794,25.647,282.37,25.647Z"/>
    <path id="Vector_30" class="cls-1" d="M282.178,21a4.813,4.813,0,1,0,4.711,4.812A4.767,4.767,0,0,0,282.178,21Zm0,8.941a4.131,4.131,0,1,1,4.043-4.13A4.092,4.092,0,0,1,282.178,29.941Z"/>
  </g>
</svg>
