<svg id="Слой_1" data-name="Слой 1" xmlns="http://www.w3.org/2000/svg" xmlns:xlink="http://www.w3.org/1999/xlink" viewBox="0 0 1673.22 37.98"><defs><style>.cls-1{fill:none;}.cls-2{clip-path:url(#clip-path);}.cls-3{clip-path:url(#clip-path-2);}.cls-4{opacity:0.3;}.cls-5{fill:#fff;}</style><clipPath id="clip-path"><rect class="cls-1" width="1673.22" height="37.98"/></clipPath><clipPath id="clip-path-2"><rect class="cls-1" width="1673.22" height="37.98"/></clipPath></defs><title>Монтажная область 1</title><g class="cls-2"><g class="cls-3"><g class="cls-4"><g class="cls-2"><path class="cls-5" d="M1671.28,38a1.84,1.84,0,0,0,1.92-2.08,2,2,0,0,0-2-1.48H1C-.93,36,.23,38,1.93,38H1671.28Z"/><path class="cls-5" d="M766.27,7.21,762.43,0H889.06c2.88,0,6.47,2.34,8,5.21l1,2Z"/><path class="cls-5" d="M900,10.77l7.81,14.68H781.17c-2.86,0-6.47-2.35-8-5.23l-5.05-9.45Z"/><path class="cls-5" d="M908.57,7.21,904.74,0h126.64c2.88,0,6.47,2.34,8,5.21l1.07,2Z"/><path class="cls-5" d="M1042.34,10.77l7.79,14.68H923.5c-2.88,0-6.46-2.35-8-5.23l-5-9.45Z"/><path class="cls-5" d="M1050.9,7.21,1047.08,0h126.64c2.88,0,6.47,2.34,8,5.21l1.07,2Z"/><path class="cls-5" d="M1184.66,10.77l7.81,14.68H1065.82c-2.88,0-6.47-2.35-8-5.23l-5-9.45Z"/><path class="cls-5" d="M342.55,7.21,338.71,0H465.35c2.88,0,6.47,2.34,8,5.21l1,2Z"/><path class="cls-5" d="M476.3,10.77l7.8,14.68H357.46c-2.86,0-6.47-2.35-8-5.23l-5.05-9.45Z"/><path class="cls-5" d="M202.88,7.21,199,0H325.67c2.88,0,6.47,2.34,8,5.21l1,2Z"/><path class="cls-5" d="M336.62,10.77l7.8,14.68H217.78c-2.86,0-6.47-2.35-8-5.23l-5.05-9.45Z"/><path class="cls-5" d="M484.86,7.21,481,0H607.67c2.88,0,6.47,2.34,8,5.21l1.07,2Z"/><path class="cls-5" d="M618.63,10.77l7.79,14.68H499.79c-2.88,0-6.46-2.35-8-5.23l-5-9.45Z"/><path class="cls-5" d="M627.19,7.21,623.36,0H750c2.88,0,6.47,2.34,8,5.21l1.07,2Z"/><path class="cls-5" d="M760.94,10.77l7.81,14.68H642.1c-2.88,0-6.47-2.35-8-5.23l-5-9.45Z"/><path class="cls-5" d="M1189.39,0h113.54c8.49,0,28.32,16.85,28.83,19.75.39,2.37-2.22,5.7-5.55,5.7H1208.15c-2.88,0-6.47-2.35-8-5.23l-5-9.45h98l8.56,7h24.13c2.12,0-.25-1.91-2.29-3.69s-8.61-6.81-9.75-6.81l-120.57-.06Z"/></g></g></g></g></svg>